<mxfile host="app.diagrams.net" agent="Mozilla/5.0 (Windows NT 10.0; Win64; x64) AppleWebKit/537.36 (KHTML, like Gecko) Chrome/139.0.0.0 Safari/537.36" version="28.1.0" pages="4">
  <diagram name="Page-1" id="suMcsPKj2IK8LeymEDPg">
    <mxGraphModel grid="1" page="1" gridSize="10" guides="1" tooltips="1" connect="1" arrows="1" fold="1" pageScale="1" pageWidth="850" pageHeight="1100" math="0" shadow="0">
      <root>
        <mxCell id="0" />
        <mxCell id="1" parent="0" />
        <mxCell id="vBnN_JX2aje5DKZq8_hg-1" value="start" style="ellipse;whiteSpace=wrap;html=1;" vertex="1" parent="1">
          <mxGeometry x="320" y="10" width="120" height="80" as="geometry" />
        </mxCell>
        <mxCell id="vBnN_JX2aje5DKZq8_hg-3" value="B&amp;nbsp;&lt;span style=&quot;border-radius: 4px; padding: 0px 2px; background: linear-gradient(90deg, rgb(211, 227, 253) 50%, rgba(0, 0, 0, 0) 50%) 75% 0px / 200% 100% no-repeat scroll padding-box border-box rgb(255, 255, 255); color: rgb(4, 12, 40); animation: 0.75s cubic-bezier(0.05, 0.7, 0.1, 1) 0.25s 1 normal forwards running highlight; font-family: &amp;quot;Google Sans&amp;quot;, Arial, sans-serif; font-size: 20px; text-align: start;&quot;&gt;≠ 0&lt;/span&gt;" style="rhombus;whiteSpace=wrap;html=1;" vertex="1" parent="1">
          <mxGeometry x="315" y="250" width="130" height="80" as="geometry" />
        </mxCell>
        <mxCell id="vBnN_JX2aje5DKZq8_hg-4" value="Output G.C.D" style="rounded=0;whiteSpace=wrap;html=1;" vertex="1" parent="1">
          <mxGeometry x="320" y="520" width="120" height="60" as="geometry" />
        </mxCell>
        <mxCell id="vBnN_JX2aje5DKZq8_hg-5" value="End" style="ellipse;whiteSpace=wrap;html=1;" vertex="1" parent="1">
          <mxGeometry x="320" y="700" width="120" height="80" as="geometry" />
        </mxCell>
        <mxCell id="vBnN_JX2aje5DKZq8_hg-6" value="temp = B" style="rounded=0;whiteSpace=wrap;html=1;" vertex="1" parent="1">
          <mxGeometry x="650" y="260" width="120" height="60" as="geometry" />
        </mxCell>
        <mxCell id="vBnN_JX2aje5DKZq8_hg-7" value="B = A mod B" style="rounded=0;whiteSpace=wrap;html=1;" vertex="1" parent="1">
          <mxGeometry x="650" y="450" width="120" height="60" as="geometry" />
        </mxCell>
        <mxCell id="vBnN_JX2aje5DKZq8_hg-8" value="A + temp" style="rounded=0;whiteSpace=wrap;html=1;" vertex="1" parent="1">
          <mxGeometry x="650" y="620" width="120" height="60" as="geometry" />
        </mxCell>
        <mxCell id="vBnN_JX2aje5DKZq8_hg-10" value="" style="endArrow=classic;html=1;rounded=0;exitX=0.5;exitY=1;exitDx=0;exitDy=0;" edge="1" parent="1" source="vBnN_JX2aje5DKZq8_hg-1">
          <mxGeometry width="50" height="50" relative="1" as="geometry">
            <mxPoint x="340" y="200" as="sourcePoint" />
            <mxPoint x="380" y="130" as="targetPoint" />
          </mxGeometry>
        </mxCell>
        <mxCell id="vBnN_JX2aje5DKZq8_hg-12" value="" style="endArrow=classic;html=1;rounded=0;exitX=0.5;exitY=1;exitDx=0;exitDy=0;" edge="1" parent="1" source="vBnN_JX2aje5DKZq8_hg-3" target="vBnN_JX2aje5DKZq8_hg-4">
          <mxGeometry width="50" height="50" relative="1" as="geometry">
            <mxPoint x="400" y="430" as="sourcePoint" />
            <mxPoint x="450" y="380" as="targetPoint" />
          </mxGeometry>
        </mxCell>
        <mxCell id="vBnN_JX2aje5DKZq8_hg-13" value="" style="endArrow=classic;html=1;rounded=0;entryX=0.5;entryY=0;entryDx=0;entryDy=0;exitX=0.5;exitY=1;exitDx=0;exitDy=0;" edge="1" parent="1" source="vBnN_JX2aje5DKZq8_hg-4" target="vBnN_JX2aje5DKZq8_hg-5">
          <mxGeometry width="50" height="50" relative="1" as="geometry">
            <mxPoint x="400" y="430" as="sourcePoint" />
            <mxPoint x="450" y="380" as="targetPoint" />
          </mxGeometry>
        </mxCell>
        <mxCell id="vBnN_JX2aje5DKZq8_hg-14" value="" style="endArrow=classic;html=1;rounded=0;entryX=0.069;entryY=0.475;entryDx=0;entryDy=0;entryPerimeter=0;" edge="1" parent="1" target="vBnN_JX2aje5DKZq8_hg-3">
          <mxGeometry width="50" height="50" relative="1" as="geometry">
            <mxPoint x="160" y="290" as="sourcePoint" />
            <mxPoint x="450" y="380" as="targetPoint" />
          </mxGeometry>
        </mxCell>
        <mxCell id="vBnN_JX2aje5DKZq8_hg-15" value="" style="endArrow=none;html=1;rounded=0;entryX=0;entryY=0.5;entryDx=0;entryDy=0;" edge="1" parent="1" target="vBnN_JX2aje5DKZq8_hg-8">
          <mxGeometry width="50" height="50" relative="1" as="geometry">
            <mxPoint x="150" y="650" as="sourcePoint" />
            <mxPoint x="450" y="380" as="targetPoint" />
          </mxGeometry>
        </mxCell>
        <mxCell id="vBnN_JX2aje5DKZq8_hg-16" value="" style="endArrow=none;html=1;rounded=0;" edge="1" parent="1">
          <mxGeometry width="50" height="50" relative="1" as="geometry">
            <mxPoint x="160" y="660" as="sourcePoint" />
            <mxPoint x="160" y="290" as="targetPoint" />
          </mxGeometry>
        </mxCell>
        <mxCell id="vBnN_JX2aje5DKZq8_hg-17" value="" style="endArrow=classic;html=1;rounded=0;entryX=0;entryY=0.5;entryDx=0;entryDy=0;exitX=1;exitY=0.5;exitDx=0;exitDy=0;" edge="1" parent="1" source="vBnN_JX2aje5DKZq8_hg-3" target="vBnN_JX2aje5DKZq8_hg-6">
          <mxGeometry width="50" height="50" relative="1" as="geometry">
            <mxPoint x="400" y="430" as="sourcePoint" />
            <mxPoint x="450" y="380" as="targetPoint" />
          </mxGeometry>
        </mxCell>
        <mxCell id="vBnN_JX2aje5DKZq8_hg-18" value="" style="endArrow=classic;html=1;rounded=0;entryX=0.5;entryY=0;entryDx=0;entryDy=0;exitX=0.5;exitY=1;exitDx=0;exitDy=0;" edge="1" parent="1" source="vBnN_JX2aje5DKZq8_hg-6" target="vBnN_JX2aje5DKZq8_hg-7">
          <mxGeometry width="50" height="50" relative="1" as="geometry">
            <mxPoint x="400" y="430" as="sourcePoint" />
            <mxPoint x="450" y="380" as="targetPoint" />
          </mxGeometry>
        </mxCell>
        <mxCell id="vBnN_JX2aje5DKZq8_hg-19" value="" style="endArrow=classic;html=1;rounded=0;entryX=0.5;entryY=0;entryDx=0;entryDy=0;" edge="1" parent="1" source="vBnN_JX2aje5DKZq8_hg-7" target="vBnN_JX2aje5DKZq8_hg-8">
          <mxGeometry width="50" height="50" relative="1" as="geometry">
            <mxPoint x="400" y="430" as="sourcePoint" />
            <mxPoint x="450" y="380" as="targetPoint" />
          </mxGeometry>
        </mxCell>
        <mxCell id="vBnN_JX2aje5DKZq8_hg-21" value="" style="endArrow=classic;html=1;rounded=0;entryX=0.5;entryY=0;entryDx=0;entryDy=0;" edge="1" parent="1" target="vBnN_JX2aje5DKZq8_hg-3">
          <mxGeometry width="50" height="50" relative="1" as="geometry">
            <mxPoint x="380" y="210" as="sourcePoint" />
            <mxPoint x="450" y="380" as="targetPoint" />
          </mxGeometry>
        </mxCell>
        <mxCell id="vBnN_JX2aje5DKZq8_hg-23" value="" style="edgeStyle=orthogonalEdgeStyle;rounded=0;orthogonalLoop=1;jettySize=auto;html=1;" edge="1" parent="1" source="vBnN_JX2aje5DKZq8_hg-22" target="vBnN_JX2aje5DKZq8_hg-3">
          <mxGeometry relative="1" as="geometry" />
        </mxCell>
        <mxCell id="vBnN_JX2aje5DKZq8_hg-22" value="Input A and B" style="rounded=0;whiteSpace=wrap;html=1;" vertex="1" parent="1">
          <mxGeometry x="320" y="130" width="120" height="60" as="geometry" />
        </mxCell>
        <mxCell id="n15K9JOSwk4fOTLhOF9b-2" value="&lt;span style=&quot;font-size: 15px;&quot;&gt;Start&lt;/span&gt;&lt;div&gt;&lt;span style=&quot;font-size: 15px;&quot;&gt;&lt;br&gt;&lt;/span&gt;&lt;/div&gt;&lt;div&gt;&lt;span style=&quot;font-size: 15px;&quot;&gt;Input a , b&lt;/span&gt;&lt;/div&gt;&lt;div&gt;&lt;span style=&quot;font-size: 15px;&quot;&gt;&lt;br&gt;&lt;/span&gt;&lt;/div&gt;&lt;div&gt;&lt;span style=&quot;font-size: 15px;&quot;&gt;While b&amp;nbsp;&lt;/span&gt;&lt;span style=&quot;background-color: transparent; color: light-dark(rgb(0, 0, 0), rgb(255, 255, 255));&quot;&gt;≠ 0&lt;/span&gt;&lt;/div&gt;&lt;div&gt;&lt;span style=&quot;background-color: transparent; color: light-dark(rgb(0, 0, 0), rgb(255, 255, 255));&quot;&gt;&lt;br&gt;&lt;/span&gt;&lt;/div&gt;&lt;div&gt;&lt;span style=&quot;background-color: transparent; color: light-dark(rgb(0, 0, 0), rgb(255, 255, 255));&quot;&gt;temp =b&lt;/span&gt;&lt;/div&gt;&lt;div&gt;&lt;span style=&quot;background-color: transparent; color: light-dark(rgb(0, 0, 0), rgb(255, 255, 255));&quot;&gt;&lt;br&gt;&lt;/span&gt;&lt;/div&gt;&lt;div&gt;&lt;span style=&quot;background-color: transparent; color: light-dark(rgb(0, 0, 0), rgb(255, 255, 255));&quot;&gt;b = a mod b&lt;/span&gt;&lt;/div&gt;&lt;div&gt;&lt;span style=&quot;background-color: transparent; color: light-dark(rgb(0, 0, 0), rgb(255, 255, 255));&quot;&gt;&lt;br&gt;&lt;/span&gt;&lt;/div&gt;&lt;div&gt;&lt;span style=&quot;background-color: transparent; color: light-dark(rgb(0, 0, 0), rgb(255, 255, 255));&quot;&gt;Output GCD = a&lt;/span&gt;&lt;/div&gt;&lt;div&gt;&lt;span style=&quot;background-color: transparent; color: light-dark(rgb(0, 0, 0), rgb(255, 255, 255));&quot;&gt;&lt;br&gt;&lt;/span&gt;&lt;/div&gt;&lt;div&gt;&lt;span style=&quot;background-color: transparent; color: light-dark(rgb(0, 0, 0), rgb(255, 255, 255));&quot;&gt;end&lt;/span&gt;&lt;/div&gt;" style="text;html=1;align=left;verticalAlign=middle;resizable=0;points=[];autosize=1;strokeColor=none;fillColor=none;" vertex="1" parent="1">
          <mxGeometry x="50" y="20" width="110" height="220" as="geometry" />
        </mxCell>
      </root>
    </mxGraphModel>
  </diagram>
  <diagram id="SX6lZSgTvvGuO8aDD0F9" name="Page-2">
    <mxGraphModel grid="1" page="1" gridSize="10" guides="1" tooltips="1" connect="1" arrows="1" fold="1" pageScale="1" pageWidth="850" pageHeight="1100" math="0" shadow="0">
      <root>
        <mxCell id="0" />
        <mxCell id="1" parent="0" />
        <mxCell id="OZXE98lop06gmrOdDdNo-4" value="i &amp;lt;= n" style="rhombus;whiteSpace=wrap;html=1;" vertex="1" parent="1">
          <mxGeometry x="305" y="460" width="190" height="80" as="geometry" />
        </mxCell>
        <mxCell id="OZXE98lop06gmrOdDdNo-1" value="start" style="ellipse;whiteSpace=wrap;html=1;" vertex="1" parent="1">
          <mxGeometry x="340" y="50" width="120" height="80" as="geometry" />
        </mxCell>
        <mxCell id="OZXE98lop06gmrOdDdNo-2" value="Input n" style="rounded=0;whiteSpace=wrap;html=1;" vertex="1" parent="1">
          <mxGeometry x="340" y="190" width="120" height="60" as="geometry" />
        </mxCell>
        <mxCell id="OZXE98lop06gmrOdDdNo-3" value="fact =1 , i = 1" style="rounded=0;whiteSpace=wrap;html=1;" vertex="1" parent="1">
          <mxGeometry x="340" y="330" width="120" height="60" as="geometry" />
        </mxCell>
        <mxCell id="OZXE98lop06gmrOdDdNo-5" value="fact = fact * i" style="rounded=0;whiteSpace=wrap;html=1;" vertex="1" parent="1">
          <mxGeometry x="340" y="590" width="120" height="60" as="geometry" />
        </mxCell>
        <mxCell id="OZXE98lop06gmrOdDdNo-6" value="i = i+1" style="rounded=0;whiteSpace=wrap;html=1;" vertex="1" parent="1">
          <mxGeometry x="340" y="720" width="120" height="60" as="geometry" />
        </mxCell>
        <mxCell id="OZXE98lop06gmrOdDdNo-7" value="output fact" style="rounded=0;whiteSpace=wrap;html=1;" vertex="1" parent="1">
          <mxGeometry x="340" y="860" width="120" height="60" as="geometry" />
        </mxCell>
        <mxCell id="OZXE98lop06gmrOdDdNo-8" value="end" style="ellipse;whiteSpace=wrap;html=1;" vertex="1" parent="1">
          <mxGeometry x="340" y="990" width="120" height="80" as="geometry" />
        </mxCell>
        <mxCell id="OZXE98lop06gmrOdDdNo-9" value="" style="endArrow=classic;html=1;rounded=0;exitX=0.5;exitY=1;exitDx=0;exitDy=0;" edge="1" parent="1" source="OZXE98lop06gmrOdDdNo-1" target="OZXE98lop06gmrOdDdNo-2">
          <mxGeometry width="50" height="50" relative="1" as="geometry">
            <mxPoint x="400" y="710" as="sourcePoint" />
            <mxPoint x="450" y="660" as="targetPoint" />
          </mxGeometry>
        </mxCell>
        <mxCell id="OZXE98lop06gmrOdDdNo-10" value="" style="endArrow=classic;html=1;rounded=0;exitX=0.5;exitY=1;exitDx=0;exitDy=0;entryX=0.5;entryY=0;entryDx=0;entryDy=0;" edge="1" parent="1" source="OZXE98lop06gmrOdDdNo-2" target="OZXE98lop06gmrOdDdNo-3">
          <mxGeometry width="50" height="50" relative="1" as="geometry">
            <mxPoint x="400" y="410" as="sourcePoint" />
            <mxPoint x="450" y="360" as="targetPoint" />
          </mxGeometry>
        </mxCell>
        <mxCell id="OZXE98lop06gmrOdDdNo-11" value="" style="endArrow=classic;html=1;rounded=0;entryX=0.5;entryY=0;entryDx=0;entryDy=0;exitX=0.5;exitY=1;exitDx=0;exitDy=0;" edge="1" parent="1" source="OZXE98lop06gmrOdDdNo-3" target="OZXE98lop06gmrOdDdNo-4">
          <mxGeometry width="50" height="50" relative="1" as="geometry">
            <mxPoint x="400" y="410" as="sourcePoint" />
            <mxPoint x="450" y="360" as="targetPoint" />
          </mxGeometry>
        </mxCell>
        <mxCell id="OZXE98lop06gmrOdDdNo-12" value="" style="endArrow=classic;html=1;rounded=0;entryX=0.5;entryY=0;entryDx=0;entryDy=0;" edge="1" parent="1" target="OZXE98lop06gmrOdDdNo-5">
          <mxGeometry width="50" height="50" relative="1" as="geometry">
            <mxPoint x="400" y="540" as="sourcePoint" />
            <mxPoint x="450" y="360" as="targetPoint" />
          </mxGeometry>
        </mxCell>
        <mxCell id="OZXE98lop06gmrOdDdNo-13" value="" style="endArrow=none;html=1;rounded=0;exitX=0.008;exitY=0.65;exitDx=0;exitDy=0;exitPerimeter=0;" edge="1" parent="1" source="OZXE98lop06gmrOdDdNo-6">
          <mxGeometry width="50" height="50" relative="1" as="geometry">
            <mxPoint x="400" y="610" as="sourcePoint" />
            <mxPoint x="200" y="760" as="targetPoint" />
            <Array as="points">
              <mxPoint x="270" y="760" />
            </Array>
          </mxGeometry>
        </mxCell>
        <mxCell id="OZXE98lop06gmrOdDdNo-14" value="" style="endArrow=none;html=1;rounded=0;" edge="1" parent="1">
          <mxGeometry width="50" height="50" relative="1" as="geometry">
            <mxPoint x="200" y="760" as="sourcePoint" />
            <mxPoint x="200" y="500" as="targetPoint" />
          </mxGeometry>
        </mxCell>
        <mxCell id="OZXE98lop06gmrOdDdNo-15" value="" style="endArrow=classic;html=1;rounded=0;" edge="1" parent="1" target="OZXE98lop06gmrOdDdNo-4">
          <mxGeometry width="50" height="50" relative="1" as="geometry">
            <mxPoint x="190" y="500" as="sourcePoint" />
            <mxPoint x="450" y="560" as="targetPoint" />
          </mxGeometry>
        </mxCell>
        <mxCell id="OZXE98lop06gmrOdDdNo-16" value="" style="endArrow=classic;html=1;rounded=0;exitX=1;exitY=0.5;exitDx=0;exitDy=0;" edge="1" parent="1" source="OZXE98lop06gmrOdDdNo-4">
          <mxGeometry width="50" height="50" relative="1" as="geometry">
            <mxPoint x="400" y="610" as="sourcePoint" />
            <mxPoint x="590" y="500" as="targetPoint" />
          </mxGeometry>
        </mxCell>
        <mxCell id="OZXE98lop06gmrOdDdNo-17" value="No" style="text;html=1;align=center;verticalAlign=middle;resizable=0;points=[];autosize=1;strokeColor=none;fillColor=none;" vertex="1" parent="1">
          <mxGeometry x="590" y="485" width="40" height="30" as="geometry" />
        </mxCell>
        <mxCell id="OZXE98lop06gmrOdDdNo-18" value="" style="endArrow=none;html=1;rounded=0;" edge="1" parent="1">
          <mxGeometry width="50" height="50" relative="1" as="geometry">
            <mxPoint x="670" y="500" as="sourcePoint" />
            <mxPoint x="640" y="500" as="targetPoint" />
          </mxGeometry>
        </mxCell>
        <mxCell id="OZXE98lop06gmrOdDdNo-19" value="" style="endArrow=classic;html=1;rounded=0;" edge="1" parent="1">
          <mxGeometry width="50" height="50" relative="1" as="geometry">
            <mxPoint x="670" y="500" as="sourcePoint" />
            <mxPoint x="670" y="890" as="targetPoint" />
          </mxGeometry>
        </mxCell>
        <mxCell id="OZXE98lop06gmrOdDdNo-21" value="" style="endArrow=classic;html=1;rounded=0;" edge="1" parent="1" target="OZXE98lop06gmrOdDdNo-7">
          <mxGeometry width="50" height="50" relative="1" as="geometry">
            <mxPoint x="670" y="890" as="sourcePoint" />
            <mxPoint x="450" y="760" as="targetPoint" />
          </mxGeometry>
        </mxCell>
        <mxCell id="OZXE98lop06gmrOdDdNo-22" value="" style="endArrow=classic;html=1;rounded=0;exitX=0.5;exitY=1;exitDx=0;exitDy=0;entryX=0.5;entryY=0;entryDx=0;entryDy=0;" edge="1" parent="1" source="OZXE98lop06gmrOdDdNo-5" target="OZXE98lop06gmrOdDdNo-6">
          <mxGeometry width="50" height="50" relative="1" as="geometry">
            <mxPoint x="400" y="810" as="sourcePoint" />
            <mxPoint x="450" y="760" as="targetPoint" />
          </mxGeometry>
        </mxCell>
        <mxCell id="OZXE98lop06gmrOdDdNo-23" value="" style="endArrow=classic;html=1;rounded=0;" edge="1" parent="1" target="OZXE98lop06gmrOdDdNo-8">
          <mxGeometry width="50" height="50" relative="1" as="geometry">
            <mxPoint x="400" y="930" as="sourcePoint" />
            <mxPoint x="450" y="760" as="targetPoint" />
          </mxGeometry>
        </mxCell>
        <mxCell id="cWvxVqcVnGAEp9eDfmLw-2" value="&lt;ol data-end=&quot;559&quot; data-start=&quot;377&quot;&gt;&lt;li data-end=&quot;389&quot; data-start=&quot;377&quot;&gt;&lt;p data-end=&quot;389&quot; data-start=&quot;380&quot;&gt;&lt;strong data-end=&quot;389&quot; data-start=&quot;380&quot;&gt;Start&lt;/strong&gt;&lt;/p&gt;&lt;/li&gt;&lt;li data-end=&quot;413&quot; data-start=&quot;390&quot;&gt;&lt;p data-end=&quot;413&quot; data-start=&quot;393&quot;&gt;Input the number &lt;code data-end=&quot;413&quot; data-start=&quot;410&quot;&gt;n&lt;/code&gt;&lt;/p&gt;&lt;/li&gt;&lt;li data-end=&quot;482&quot; data-start=&quot;465&quot;&gt;&lt;p data-end=&quot;482&quot; data-start=&quot;468&quot;&gt;Set &lt;code data-end=&quot;482&quot; data-start=&quot;472&quot;&gt;fact ← 1&lt;/code&gt;&lt;/p&gt;&lt;/li&gt;&lt;li data-end=&quot;531&quot; data-start=&quot;483&quot;&gt;&lt;p data-end=&quot;508&quot; data-start=&quot;486&quot;&gt;For &lt;code data-end=&quot;493&quot; data-start=&quot;490&quot;&gt;i&lt;/code&gt; from 1 to &lt;code data-end=&quot;507&quot; data-start=&quot;504&quot;&gt;n&lt;/code&gt;:&lt;/p&gt;&lt;ul data-end=&quot;531&quot; data-start=&quot;512&quot;&gt;&lt;li data-end=&quot;531&quot; data-start=&quot;512&quot;&gt;&lt;p data-end=&quot;531&quot; data-start=&quot;514&quot;&gt;&lt;code data-end=&quot;531&quot; data-start=&quot;514&quot;&gt;fact ← fact × i&lt;/code&gt;&lt;/p&gt;&lt;/li&gt;&lt;/ul&gt;&lt;/li&gt;&lt;li data-end=&quot;548&quot; data-start=&quot;532&quot;&gt;&lt;p data-end=&quot;548&quot; data-start=&quot;535&quot;&gt;Output &lt;code data-end=&quot;548&quot; data-start=&quot;542&quot;&gt;fact&lt;/code&gt;&lt;/p&gt;&lt;/li&gt;&lt;li data-end=&quot;559&quot; data-start=&quot;549&quot;&gt;&lt;p data-end=&quot;559&quot; data-start=&quot;552&quot;&gt;&lt;strong data-end=&quot;559&quot; data-start=&quot;552&quot;&gt;End&lt;/strong&gt;&lt;/p&gt;&lt;br&gt;&lt;/li&gt;&lt;br&gt;&lt;/ol&gt;" style="text;html=1;align=left;verticalAlign=middle;resizable=0;points=[];autosize=1;strokeColor=none;fillColor=none;" vertex="1" parent="1">
          <mxGeometry x="-90" y="150" width="200" height="250" as="geometry" />
        </mxCell>
      </root>
    </mxGraphModel>
  </diagram>
  <diagram id="kpuv1LIM0bZQrag6FUNk" name="Page-3">
    <mxGraphModel grid="1" page="1" gridSize="10" guides="1" tooltips="1" connect="1" arrows="1" fold="1" pageScale="1" pageWidth="850" pageHeight="1100" math="0" shadow="0">
      <root>
        <mxCell id="0" />
        <mxCell id="1" parent="0" />
        <mxCell id="A-i6Ef6Esvkv3Z8pJgR1-1" value="Start" style="ellipse;whiteSpace=wrap;html=1;" vertex="1" parent="1">
          <mxGeometry x="340" y="40" width="120" height="80" as="geometry" />
        </mxCell>
        <mxCell id="A-i6Ef6Esvkv3Z8pJgR1-5" value="Input In" style="shape=parallelogram;perimeter=parallelogramPerimeter;whiteSpace=wrap;html=1;fixedSize=1;" vertex="1" parent="1">
          <mxGeometry x="340" y="190" width="120" height="60" as="geometry" />
        </mxCell>
        <mxCell id="A-i6Ef6Esvkv3Z8pJgR1-6" value="a=0 , b=1 , i=2" style="rounded=1;whiteSpace=wrap;html=1;" vertex="1" parent="1">
          <mxGeometry x="340" y="320" width="120" height="60" as="geometry" />
        </mxCell>
        <mxCell id="A-i6Ef6Esvkv3Z8pJgR1-7" value="Output a,ิ" style="shape=parallelogram;perimeter=parallelogramPerimeter;whiteSpace=wrap;html=1;fixedSize=1;" vertex="1" parent="1">
          <mxGeometry x="340" y="450" width="120" height="60" as="geometry" />
        </mxCell>
        <mxCell id="A-i6Ef6Esvkv3Z8pJgR1-8" value="i&amp;lt;=n" style="rhombus;whiteSpace=wrap;html=1;" vertex="1" parent="1">
          <mxGeometry x="330" y="580" width="140" height="80" as="geometry" />
        </mxCell>
        <mxCell id="A-i6Ef6Esvkv3Z8pJgR1-10" value="End" style="ellipse;whiteSpace=wrap;html=1;" vertex="1" parent="1">
          <mxGeometry x="340" y="730" width="120" height="80" as="geometry" />
        </mxCell>
        <mxCell id="A-i6Ef6Esvkv3Z8pJgR1-11" value="Output c" style="shape=parallelogram;perimeter=parallelogramPerimeter;whiteSpace=wrap;html=1;fixedSize=1;" vertex="1" parent="1">
          <mxGeometry x="340" y="880" width="120" height="60" as="geometry" />
        </mxCell>
        <mxCell id="A-i6Ef6Esvkv3Z8pJgR1-12" value="c=a+b&lt;div&gt;a=b , b=c&lt;/div&gt;&lt;div&gt;i=i+1&lt;/div&gt;" style="rounded=1;whiteSpace=wrap;html=1;" vertex="1" parent="1">
          <mxGeometry x="130" y="740" width="120" height="60" as="geometry" />
        </mxCell>
        <mxCell id="A-i6Ef6Esvkv3Z8pJgR1-13" value="" style="endArrow=classic;html=1;rounded=0;exitX=0.5;exitY=1;exitDx=0;exitDy=0;" edge="1" parent="1" source="A-i6Ef6Esvkv3Z8pJgR1-6" target="A-i6Ef6Esvkv3Z8pJgR1-7">
          <mxGeometry width="50" height="50" relative="1" as="geometry">
            <mxPoint x="400" y="400" as="sourcePoint" />
            <mxPoint x="450" y="680" as="targetPoint" />
          </mxGeometry>
        </mxCell>
        <mxCell id="A-i6Ef6Esvkv3Z8pJgR1-14" value="" style="endArrow=classic;html=1;rounded=0;exitX=0.5;exitY=1;exitDx=0;exitDy=0;entryX=0.5;entryY=0;entryDx=0;entryDy=0;" edge="1" parent="1" source="A-i6Ef6Esvkv3Z8pJgR1-5" target="A-i6Ef6Esvkv3Z8pJgR1-6">
          <mxGeometry width="50" height="50" relative="1" as="geometry">
            <mxPoint x="400" y="330" as="sourcePoint" />
            <mxPoint x="450" y="280" as="targetPoint" />
          </mxGeometry>
        </mxCell>
        <mxCell id="A-i6Ef6Esvkv3Z8pJgR1-15" value="" style="endArrow=classic;html=1;rounded=0;exitX=0.5;exitY=1;exitDx=0;exitDy=0;" edge="1" parent="1" source="A-i6Ef6Esvkv3Z8pJgR1-1" target="A-i6Ef6Esvkv3Z8pJgR1-5">
          <mxGeometry width="50" height="50" relative="1" as="geometry">
            <mxPoint x="400" y="330" as="sourcePoint" />
            <mxPoint x="450" y="280" as="targetPoint" />
          </mxGeometry>
        </mxCell>
        <mxCell id="A-i6Ef6Esvkv3Z8pJgR1-16" value="" style="endArrow=classic;html=1;rounded=0;exitX=0.5;exitY=1;exitDx=0;exitDy=0;entryX=0.5;entryY=0;entryDx=0;entryDy=0;" edge="1" parent="1" source="A-i6Ef6Esvkv3Z8pJgR1-7" target="A-i6Ef6Esvkv3Z8pJgR1-8">
          <mxGeometry width="50" height="50" relative="1" as="geometry">
            <mxPoint x="400" y="630" as="sourcePoint" />
            <mxPoint x="450" y="580" as="targetPoint" />
          </mxGeometry>
        </mxCell>
        <mxCell id="A-i6Ef6Esvkv3Z8pJgR1-17" value="" style="endArrow=classic;html=1;rounded=0;entryX=0.5;entryY=0;entryDx=0;entryDy=0;" edge="1" parent="1" source="A-i6Ef6Esvkv3Z8pJgR1-8" target="A-i6Ef6Esvkv3Z8pJgR1-10">
          <mxGeometry width="50" height="50" relative="1" as="geometry">
            <mxPoint x="400" y="690" as="sourcePoint" />
            <mxPoint x="450" y="580" as="targetPoint" />
          </mxGeometry>
        </mxCell>
        <mxCell id="A-i6Ef6Esvkv3Z8pJgR1-18" value="" style="endArrow=classic;html=1;rounded=0;" edge="1" parent="1">
          <mxGeometry width="50" height="50" relative="1" as="geometry">
            <mxPoint x="320" y="640" as="sourcePoint" />
            <mxPoint x="230" y="700" as="targetPoint" />
          </mxGeometry>
        </mxCell>
        <mxCell id="A-i6Ef6Esvkv3Z8pJgR1-19" value="" style="endArrow=classic;html=1;rounded=0;" edge="1" parent="1">
          <mxGeometry width="50" height="50" relative="1" as="geometry">
            <mxPoint x="230" y="840" as="sourcePoint" />
            <mxPoint x="320" y="910" as="targetPoint" />
          </mxGeometry>
        </mxCell>
        <mxCell id="A-i6Ef6Esvkv3Z8pJgR1-21" value="" style="endArrow=classic;html=1;rounded=0;" edge="1" parent="1">
          <mxGeometry width="50" height="50" relative="1" as="geometry">
            <mxPoint x="520" y="900" as="sourcePoint" />
            <mxPoint x="520" y="640" as="targetPoint" />
            <Array as="points">
              <mxPoint x="620" y="810" />
              <mxPoint x="630" y="710" />
            </Array>
          </mxGeometry>
        </mxCell>
        <mxCell id="A-i6Ef6Esvkv3Z8pJgR1-22" value="Yes" style="text;html=1;align=center;verticalAlign=middle;resizable=0;points=[];autosize=1;strokeColor=none;fillColor=none;" vertex="1" parent="1">
          <mxGeometry x="260" y="668" width="40" height="30" as="geometry" />
        </mxCell>
        <mxCell id="A-i6Ef6Esvkv3Z8pJgR1-23" value="No" style="text;html=1;align=center;verticalAlign=middle;resizable=0;points=[];autosize=1;strokeColor=none;fillColor=none;" vertex="1" parent="1">
          <mxGeometry x="400" y="668" width="40" height="30" as="geometry" />
        </mxCell>
        <mxCell id="oNInvWIYj9phRHuSjOvP-1" value="&lt;li data-end=&quot;396&quot; data-start=&quot;384&quot;&gt;&lt;p data-end=&quot;396&quot; data-start=&quot;387&quot;&gt;&lt;strong data-end=&quot;396&quot; data-start=&quot;387&quot;&gt;&amp;nbsp;Start&lt;/strong&gt;&lt;/p&gt;&lt;/li&gt;&lt;li data-end=&quot;422&quot; data-start=&quot;397&quot;&gt;&lt;p data-end=&quot;422&quot; data-start=&quot;400&quot;&gt;Input the value of &lt;code data-end=&quot;422&quot; data-start=&quot;419&quot;&gt;n&lt;/code&gt;&lt;/p&gt;&lt;/li&gt;&lt;li data-end=&quot;422&quot; data-start=&quot;397&quot;&gt;&lt;p data-end=&quot;422&quot; data-start=&quot;400&quot;&gt;&lt;span style=&quot;background-color: transparent; color: light-dark(rgb(0, 0, 0), rgb(255, 255, 255));&quot;&gt;Initialize:&lt;/span&gt;&lt;/p&gt;&lt;/li&gt;&lt;li data-end=&quot;476&quot; data-start=&quot;423&quot;&gt;&lt;ul data-end=&quot;476&quot; data-start=&quot;441&quot;&gt;&lt;li data-end=&quot;450&quot; data-start=&quot;441&quot;&gt;&lt;p data-end=&quot;450&quot; data-start=&quot;443&quot;&gt;&lt;code data-end=&quot;450&quot; data-start=&quot;443&quot;&gt;a ← 0&lt;/code&gt;&lt;/p&gt;&lt;/li&gt;&lt;li data-end=&quot;463&quot; data-start=&quot;454&quot;&gt;&lt;p data-end=&quot;463&quot; data-start=&quot;456&quot;&gt;&lt;code data-end=&quot;463&quot; data-start=&quot;456&quot;&gt;b ← 1&lt;/code&gt;&lt;/p&gt;&lt;/li&gt;&lt;li data-end=&quot;476&quot; data-start=&quot;467&quot;&gt;&lt;p data-end=&quot;476&quot; data-start=&quot;469&quot;&gt;&lt;code data-end=&quot;476&quot; data-start=&quot;469&quot;&gt;i ← 2&lt;/code&gt;&lt;/p&gt;&lt;/li&gt;&lt;/ul&gt;&lt;/li&gt;&lt;li data-end=&quot;498&quot; data-start=&quot;477&quot;&gt;&lt;p data-end=&quot;498&quot; data-start=&quot;480&quot;&gt;Output &lt;code data-end=&quot;490&quot; data-start=&quot;487&quot;&gt;a&lt;/code&gt; and &lt;code data-end=&quot;498&quot; data-start=&quot;495&quot;&gt;b&lt;/code&gt;&lt;/p&gt;&lt;/li&gt;&lt;li data-end=&quot;498&quot; data-start=&quot;477&quot;&gt;&lt;p data-end=&quot;498&quot; data-start=&quot;480&quot;&gt;&lt;span style=&quot;background-color: transparent; color: light-dark(rgb(0, 0, 0), rgb(255, 255, 255));&quot;&gt;Repeat the following steps while &lt;/span&gt;&lt;code style=&quot;background-color: transparent; color: light-dark(rgb(0, 0, 0), rgb(255, 255, 255));&quot; data-end=&quot;542&quot; data-start=&quot;535&quot;&gt;i ≤ n&lt;/code&gt;&lt;span style=&quot;background-color: transparent; color: light-dark(rgb(0, 0, 0), rgb(255, 255, 255));&quot;&gt;:&lt;/span&gt;&lt;/p&gt;&lt;/li&gt;&lt;li data-end=&quot;619&quot; data-start=&quot;499&quot;&gt;&lt;ul data-end=&quot;619&quot; data-start=&quot;547&quot;&gt;&lt;li data-end=&quot;560&quot; data-start=&quot;547&quot;&gt;&lt;p data-end=&quot;560&quot; data-start=&quot;549&quot;&gt;&lt;code data-end=&quot;560&quot; data-start=&quot;549&quot;&gt;c ← a + b&lt;/code&gt;&lt;/p&gt;&lt;/li&gt;&lt;li data-end=&quot;576&quot; data-start=&quot;564&quot;&gt;&lt;p data-end=&quot;576&quot; data-start=&quot;566&quot;&gt;Output &lt;code data-end=&quot;576&quot; data-start=&quot;573&quot;&gt;c&lt;/code&gt;&lt;/p&gt;&lt;/li&gt;&lt;li data-end=&quot;589&quot; data-start=&quot;580&quot;&gt;&lt;p data-end=&quot;589&quot; data-start=&quot;582&quot;&gt;&lt;code data-end=&quot;589&quot; data-start=&quot;582&quot;&gt;a ← b&lt;/code&gt;&lt;/p&gt;&lt;/li&gt;&lt;li data-end=&quot;602&quot; data-start=&quot;593&quot;&gt;&lt;p data-end=&quot;602&quot; data-start=&quot;595&quot;&gt;&lt;code data-end=&quot;602&quot; data-start=&quot;595&quot;&gt;b ← c&lt;/code&gt;&lt;/p&gt;&lt;/li&gt;&lt;li data-end=&quot;619&quot; data-start=&quot;606&quot;&gt;&lt;p data-end=&quot;619&quot; data-start=&quot;608&quot;&gt;&lt;code data-end=&quot;619&quot; data-start=&quot;608&quot;&gt;i ← i + 1&lt;/code&gt;&lt;/p&gt;&lt;/li&gt;&lt;li data-end=&quot;619&quot; data-start=&quot;606&quot;&gt;&lt;p data-end=&quot;619&quot; data-start=&quot;608&quot;&gt;&lt;strong style=&quot;background-color: transparent; color: light-dark(rgb(0, 0, 0), rgb(255, 255, 255));&quot; data-end=&quot;630&quot; data-start=&quot;623&quot;&gt;End&lt;/strong&gt;&lt;/p&gt;&lt;/li&gt;&lt;/ul&gt;&lt;/li&gt;" style="text;html=1;align=left;verticalAlign=middle;resizable=0;points=[];autosize=1;strokeColor=none;fillColor=none;" vertex="1" parent="1">
          <mxGeometry x="-200" y="60" width="230" height="570" as="geometry" />
        </mxCell>
      </root>
    </mxGraphModel>
  </diagram>
  <diagram id="ofLoeT3sQ5hLez7SH1Y0" name="Page-4">
    <mxGraphModel grid="1" page="1" gridSize="10" guides="1" tooltips="1" connect="1" arrows="1" fold="1" pageScale="1" pageWidth="850" pageHeight="1100" math="0" shadow="0">
      <root>
        <mxCell id="0" />
        <mxCell id="1" parent="0" />
        <mxCell id="dk4oCj4b5KITdhKvQA7r-1" value="start" style="ellipse;whiteSpace=wrap;html=1;" vertex="1" parent="1">
          <mxGeometry x="305" y="40" width="120" height="80" as="geometry" />
        </mxCell>
        <mxCell id="dk4oCj4b5KITdhKvQA7r-2" value="Input start , end" style="shape=parallelogram;perimeter=parallelogramPerimeter;whiteSpace=wrap;html=1;fixedSize=1;" vertex="1" parent="1">
          <mxGeometry x="275" y="160" width="180" height="60" as="geometry" />
        </mxCell>
        <mxCell id="dk4oCj4b5KITdhKvQA7r-3" value="num&amp;lt;=1?" style="rhombus;whiteSpace=wrap;html=1;" vertex="1" parent="1">
          <mxGeometry x="290" y="280" width="145" height="80" as="geometry" />
        </mxCell>
        <mxCell id="dk4oCj4b5KITdhKvQA7r-4" value="isPrime = true" style="rounded=1;whiteSpace=wrap;html=1;" vertex="1" parent="1">
          <mxGeometry x="271.25" y="400" width="182.5" height="60" as="geometry" />
        </mxCell>
        <mxCell id="dk4oCj4b5KITdhKvQA7r-5" value="For i = 2 to sqrt(num)" style="rounded=1;whiteSpace=wrap;html=1;" vertex="1" parent="1">
          <mxGeometry x="255" y="510" width="220" height="60" as="geometry" />
        </mxCell>
        <mxCell id="dk4oCj4b5KITdhKvQA7r-6" value="num % i = 0" style="rhombus;whiteSpace=wrap;html=1;" vertex="1" parent="1">
          <mxGeometry x="300" y="640" width="130" height="80" as="geometry" />
        </mxCell>
        <mxCell id="dk4oCj4b5KITdhKvQA7r-7" value="isPrime" style="rhombus;whiteSpace=wrap;html=1;" vertex="1" parent="1">
          <mxGeometry x="290" y="770" width="150" height="80" as="geometry" />
        </mxCell>
        <mxCell id="dk4oCj4b5KITdhKvQA7r-9" value="Skip" style="rounded=1;whiteSpace=wrap;html=1;" vertex="1" parent="1">
          <mxGeometry x="590" y="350" width="120" height="60" as="geometry" />
        </mxCell>
        <mxCell id="dk4oCj4b5KITdhKvQA7r-10" value="isPrime = false" style="shape=hexagon;perimeter=hexagonPerimeter2;whiteSpace=wrap;html=1;fixedSize=1;" vertex="1" parent="1">
          <mxGeometry x="570" y="690" width="160" height="80" as="geometry" />
        </mxCell>
        <mxCell id="dk4oCj4b5KITdhKvQA7r-11" value="" style="endArrow=classic;html=1;rounded=0;exitX=0.425;exitY=0.988;exitDx=0;exitDy=0;exitPerimeter=0;entryX=0.456;entryY=0.033;entryDx=0;entryDy=0;entryPerimeter=0;" edge="1" parent="1" source="dk4oCj4b5KITdhKvQA7r-1" target="dk4oCj4b5KITdhKvQA7r-2">
          <mxGeometry width="50" height="50" relative="1" as="geometry">
            <mxPoint x="400" y="330" as="sourcePoint" />
            <mxPoint x="450" y="280" as="targetPoint" />
          </mxGeometry>
        </mxCell>
        <mxCell id="dk4oCj4b5KITdhKvQA7r-12" value="" style="endArrow=classic;html=1;rounded=0;exitX=0.45;exitY=1.033;exitDx=0;exitDy=0;exitPerimeter=0;entryX=0.462;entryY=0.075;entryDx=0;entryDy=0;entryPerimeter=0;" edge="1" parent="1" source="dk4oCj4b5KITdhKvQA7r-2" target="dk4oCj4b5KITdhKvQA7r-3">
          <mxGeometry width="50" height="50" relative="1" as="geometry">
            <mxPoint x="400" y="330" as="sourcePoint" />
            <mxPoint x="450" y="280" as="targetPoint" />
          </mxGeometry>
        </mxCell>
        <mxCell id="dk4oCj4b5KITdhKvQA7r-13" value="" style="endArrow=classic;html=1;rounded=0;entryX=0.5;entryY=0;entryDx=0;entryDy=0;exitX=0.5;exitY=1;exitDx=0;exitDy=0;" edge="1" parent="1" source="dk4oCj4b5KITdhKvQA7r-3" target="dk4oCj4b5KITdhKvQA7r-4">
          <mxGeometry width="50" height="50" relative="1" as="geometry">
            <mxPoint x="400" y="330" as="sourcePoint" />
            <mxPoint x="450" y="280" as="targetPoint" />
          </mxGeometry>
        </mxCell>
        <mxCell id="dk4oCj4b5KITdhKvQA7r-14" value="" style="endArrow=classic;html=1;rounded=0;exitX=0.5;exitY=1;exitDx=0;exitDy=0;" edge="1" parent="1" source="dk4oCj4b5KITdhKvQA7r-4" target="dk4oCj4b5KITdhKvQA7r-5">
          <mxGeometry width="50" height="50" relative="1" as="geometry">
            <mxPoint x="400" y="330" as="sourcePoint" />
            <mxPoint x="450" y="280" as="targetPoint" />
          </mxGeometry>
        </mxCell>
        <mxCell id="dk4oCj4b5KITdhKvQA7r-15" value="" style="endArrow=classic;html=1;rounded=0;entryX=0.5;entryY=0;entryDx=0;entryDy=0;exitX=0.5;exitY=1;exitDx=0;exitDy=0;" edge="1" parent="1" source="dk4oCj4b5KITdhKvQA7r-5" target="dk4oCj4b5KITdhKvQA7r-6">
          <mxGeometry width="50" height="50" relative="1" as="geometry">
            <mxPoint x="400" y="530" as="sourcePoint" />
            <mxPoint x="450" y="480" as="targetPoint" />
          </mxGeometry>
        </mxCell>
        <mxCell id="dk4oCj4b5KITdhKvQA7r-16" value="" style="endArrow=classic;html=1;rounded=0;entryX=0.5;entryY=0;entryDx=0;entryDy=0;exitX=0.5;exitY=1;exitDx=0;exitDy=0;" edge="1" parent="1" source="dk4oCj4b5KITdhKvQA7r-6" target="dk4oCj4b5KITdhKvQA7r-7">
          <mxGeometry width="50" height="50" relative="1" as="geometry">
            <mxPoint x="400" y="530" as="sourcePoint" />
            <mxPoint x="450" y="480" as="targetPoint" />
          </mxGeometry>
        </mxCell>
        <mxCell id="dk4oCj4b5KITdhKvQA7r-18" value="" style="endArrow=classic;html=1;rounded=0;entryX=0.5;entryY=0;entryDx=0;entryDy=0;exitX=0.5;exitY=1;exitDx=0;exitDy=0;" edge="1" parent="1" source="dk4oCj4b5KITdhKvQA7r-7">
          <mxGeometry width="50" height="50" relative="1" as="geometry">
            <mxPoint x="400" y="830" as="sourcePoint" />
            <mxPoint x="365" y="910" as="targetPoint" />
          </mxGeometry>
        </mxCell>
        <mxCell id="dk4oCj4b5KITdhKvQA7r-19" value="" style="endArrow=classic;html=1;rounded=0;exitX=1;exitY=0.5;exitDx=0;exitDy=0;" edge="1" parent="1" source="dk4oCj4b5KITdhKvQA7r-3">
          <mxGeometry width="50" height="50" relative="1" as="geometry">
            <mxPoint x="400" y="330" as="sourcePoint" />
            <mxPoint x="650" y="320" as="targetPoint" />
          </mxGeometry>
        </mxCell>
        <mxCell id="dk4oCj4b5KITdhKvQA7r-20" value="" style="endArrow=classic;html=1;rounded=0;entryX=0.5;entryY=0;entryDx=0;entryDy=0;" edge="1" parent="1" target="dk4oCj4b5KITdhKvQA7r-9">
          <mxGeometry width="50" height="50" relative="1" as="geometry">
            <mxPoint x="650" y="320" as="sourcePoint" />
            <mxPoint x="450" y="280" as="targetPoint" />
          </mxGeometry>
        </mxCell>
        <mxCell id="-dZzoRBcMVA-q8KCHSVM-3" value="" style="endArrow=none;html=1;rounded=0;exitX=0.5;exitY=1;exitDx=0;exitDy=0;entryX=0.5;entryY=0;entryDx=0;entryDy=0;" edge="1" parent="1" source="dk4oCj4b5KITdhKvQA7r-9" target="dk4oCj4b5KITdhKvQA7r-10">
          <mxGeometry width="50" height="50" relative="1" as="geometry">
            <mxPoint x="400" y="620" as="sourcePoint" />
            <mxPoint x="450" y="570" as="targetPoint" />
          </mxGeometry>
        </mxCell>
        <mxCell id="-dZzoRBcMVA-q8KCHSVM-4" value="" style="endArrow=none;html=1;rounded=0;exitX=0.5;exitY=1;exitDx=0;exitDy=0;" edge="1" parent="1" source="dk4oCj4b5KITdhKvQA7r-10">
          <mxGeometry width="50" height="50" relative="1" as="geometry">
            <mxPoint x="400" y="820" as="sourcePoint" />
            <mxPoint x="650" y="810" as="targetPoint" />
          </mxGeometry>
        </mxCell>
        <mxCell id="-dZzoRBcMVA-q8KCHSVM-5" value="" style="endArrow=none;html=1;rounded=0;entryX=1;entryY=0.5;entryDx=0;entryDy=0;" edge="1" parent="1" target="dk4oCj4b5KITdhKvQA7r-7">
          <mxGeometry width="50" height="50" relative="1" as="geometry">
            <mxPoint x="650" y="810" as="sourcePoint" />
            <mxPoint x="450" y="770" as="targetPoint" />
          </mxGeometry>
        </mxCell>
        <mxCell id="-dZzoRBcMVA-q8KCHSVM-6" value="" style="endArrow=classic;html=1;rounded=0;exitX=1;exitY=0.5;exitDx=0;exitDy=0;" edge="1" parent="1" source="dk4oCj4b5KITdhKvQA7r-6">
          <mxGeometry width="50" height="50" relative="1" as="geometry">
            <mxPoint x="400" y="620" as="sourcePoint" />
            <mxPoint x="650" y="680" as="targetPoint" />
          </mxGeometry>
        </mxCell>
        <mxCell id="-dZzoRBcMVA-q8KCHSVM-7" value="Output num" style="rounded=1;whiteSpace=wrap;html=1;" vertex="1" parent="1">
          <mxGeometry x="302.5" y="910" width="120" height="60" as="geometry" />
        </mxCell>
        <mxCell id="-dZzoRBcMVA-q8KCHSVM-8" value="" style="endArrow=classic;html=1;rounded=0;exitX=0.5;exitY=1;exitDx=0;exitDy=0;" edge="1" parent="1" source="-dZzoRBcMVA-q8KCHSVM-7">
          <mxGeometry width="50" height="50" relative="1" as="geometry">
            <mxPoint x="400" y="920" as="sourcePoint" />
            <mxPoint x="363" y="1040" as="targetPoint" />
          </mxGeometry>
        </mxCell>
        <mxCell id="-dZzoRBcMVA-q8KCHSVM-9" value="End" style="rounded=1;whiteSpace=wrap;html=1;" vertex="1" parent="1">
          <mxGeometry x="302.5" y="1040" width="120" height="60" as="geometry" />
        </mxCell>
        <mxCell id="-dZzoRBcMVA-q8KCHSVM-10" value="Yes" style="text;html=1;align=center;verticalAlign=middle;resizable=0;points=[];autosize=1;strokeColor=none;fillColor=none;" vertex="1" parent="1">
          <mxGeometry x="550" y="268" width="40" height="30" as="geometry" />
        </mxCell>
        <mxCell id="-dZzoRBcMVA-q8KCHSVM-11" value="No" style="text;html=1;align=center;verticalAlign=middle;resizable=0;points=[];autosize=1;strokeColor=none;fillColor=none;" vertex="1" parent="1">
          <mxGeometry x="300" y="358" width="40" height="30" as="geometry" />
        </mxCell>
        <mxCell id="-dZzoRBcMVA-q8KCHSVM-12" value="No" style="text;html=1;align=center;verticalAlign=middle;resizable=0;points=[];autosize=1;strokeColor=none;fillColor=none;" vertex="1" parent="1">
          <mxGeometry x="500" y="638" width="40" height="30" as="geometry" />
        </mxCell>
        <mxCell id="-dZzoRBcMVA-q8KCHSVM-13" value="No" style="text;html=1;align=center;verticalAlign=middle;resizable=0;points=[];autosize=1;strokeColor=none;fillColor=none;" vertex="1" parent="1">
          <mxGeometry x="310" y="728" width="40" height="30" as="geometry" />
        </mxCell>
        <mxCell id="8qMTXQ9O_lF6LJIBWJdQ-1" value="&lt;li data-end=&quot;369&quot; data-start=&quot;357&quot;&gt;&lt;p data-end=&quot;369&quot; data-start=&quot;360&quot;&gt;&lt;strong style=&quot;background-color: transparent; color: light-dark(rgb(0, 0, 0), rgb(255, 255, 255));&quot; data-end=&quot;369&quot; data-start=&quot;360&quot;&gt;&lt;font style=&quot;font-size: 18px;&quot;&gt;Start&lt;/font&gt;&lt;/strong&gt;&lt;/p&gt;&lt;/li&gt;&lt;li data-end=&quot;396&quot; data-start=&quot;370&quot;&gt;&lt;p data-end=&quot;396&quot; data-start=&quot;373&quot;&gt;&lt;font size=&quot;3&quot;&gt;Input &lt;code data-end=&quot;386&quot; data-start=&quot;379&quot;&gt;start&lt;/code&gt; and &lt;code data-end=&quot;396&quot; data-start=&quot;391&quot;&gt;en&amp;nbsp;&lt;/code&gt;&lt;/font&gt;&lt;/p&gt;&lt;/li&gt;&lt;li data-end=&quot;396&quot; data-start=&quot;370&quot;&gt;&lt;p data-end=&quot;396&quot; data-start=&quot;373&quot;&gt;&lt;span style=&quot;background-color: transparent; color: light-dark(rgb(0, 0, 0), rgb(255, 255, 255)); font-size: medium;&quot;&gt;Repeat for each number &lt;/span&gt;&lt;code style=&quot;background-color: transparent; color: light-dark(rgb(0, 0, 0), rgb(255, 255, 255));&quot; data-end=&quot;428&quot; data-start=&quot;423&quot;&gt;num&lt;/code&gt;&lt;span style=&quot;background-color: transparent; color: light-dark(rgb(0, 0, 0), rgb(255, 255, 255)); font-size: medium;&quot;&gt; from &lt;/span&gt;&lt;code style=&quot;background-color: transparent; color: light-dark(rgb(0, 0, 0), rgb(255, 255, 255));&quot; data-end=&quot;441&quot; data-start=&quot;434&quot;&gt;start&lt;/code&gt;&lt;span style=&quot;background-color: transparent; color: light-dark(rgb(0, 0, 0), rgb(255, 255, 255)); font-size: medium;&quot;&gt; to &lt;/span&gt;&lt;code style=&quot;background-color: transparent; color: light-dark(rgb(0, 0, 0), rgb(255, 255, 255));&quot; data-end=&quot;450&quot; data-start=&quot;445&quot;&gt;end&lt;/code&gt;&lt;span style=&quot;background-color: transparent; color: light-dark(rgb(0, 0, 0), rgb(255, 255, 255)); font-size: medium;&quot;&gt;:&lt;/span&gt;&lt;/p&gt;&lt;/li&gt;&lt;li data-end=&quot;396&quot; data-start=&quot;370&quot;&gt;&lt;p data-end=&quot;396&quot; data-start=&quot;373&quot;&gt;&lt;span style=&quot;font-size: medium; background-color: transparent; color: light-dark(rgb(0, 0, 0), rgb(255, 255, 255));&quot;&gt;If &lt;/span&gt;&lt;code style=&quot;background-color: transparent; color: light-dark(rgb(0, 0, 0), rgb(255, 255, 255));&quot; data-end=&quot;470&quot; data-start=&quot;461&quot;&gt;num &amp;lt; 2&lt;/code&gt;&lt;span style=&quot;font-size: medium; background-color: transparent; color: light-dark(rgb(0, 0, 0), rgb(255, 255, 255));&quot;&gt;, &lt;/span&gt;&lt;strong style=&quot;font-size: medium; background-color: transparent; color: light-dark(rgb(0, 0, 0), rgb(255, 255, 255));&quot; data-end=&quot;480&quot; data-start=&quot;472&quot;&gt;skip&lt;/strong&gt;&lt;span style=&quot;font-size: medium; background-color: transparent; color: light-dark(rgb(0, 0, 0), rgb(255, 255, 255));&quot;&gt; to the next number (since 0 and 1 are not prime)&lt;/span&gt;&lt;/p&gt;&lt;/li&gt;&lt;li data-end=&quot;773&quot; data-start=&quot;397&quot;&gt;&lt;ol data-end=&quot;773&quot; data-start=&quot;455&quot;&gt;&lt;li data-end=&quot;556&quot; data-start=&quot;533&quot;&gt;&lt;p data-end=&quot;556&quot; data-start=&quot;536&quot;&gt;&lt;font size=&quot;3&quot;&gt;Set &lt;code data-end=&quot;556&quot; data-start=&quot;540&quot;&gt;isPrime ← true&lt;/code&gt;&lt;/font&gt;&lt;/p&gt;&lt;/li&gt;&lt;li data-end=&quot;719&quot; data-start=&quot;560&quot;&gt;&lt;p data-end=&quot;629&quot; data-start=&quot;563&quot;&gt;&lt;font size=&quot;3&quot;&gt;For &lt;code data-end=&quot;570&quot; data-start=&quot;567&quot;&gt;i&lt;/code&gt; from 2 to &lt;code data-end=&quot;592&quot; data-start=&quot;581&quot;&gt;sqrt(num)&lt;/code&gt; (or up to &lt;code data-end=&quot;612&quot; data-start=&quot;603&quot;&gt;num - 1&lt;/code&gt; for simplicity):&lt;/font&gt;&lt;/p&gt;&lt;ul data-end=&quot;719&quot; data-start=&quot;636&quot;&gt;&lt;li data-end=&quot;719&quot; data-start=&quot;636&quot;&gt;&lt;p data-end=&quot;662&quot; data-start=&quot;638&quot;&gt;&lt;font size=&quot;3&quot;&gt;If &lt;code data-end=&quot;655&quot; data-start=&quot;641&quot;&gt;num % i == 0&lt;/code&gt;, then:&lt;/font&gt;&lt;/p&gt;&lt;ul data-end=&quot;719&quot; data-start=&quot;671&quot;&gt;&lt;li data-end=&quot;694&quot; data-start=&quot;671&quot;&gt;&lt;p data-end=&quot;694&quot; data-start=&quot;673&quot;&gt;&lt;font size=&quot;3&quot;&gt;Set &lt;code data-end=&quot;694&quot; data-start=&quot;677&quot;&gt;isPrime ← false&lt;/code&gt;&lt;/font&gt;&lt;/p&gt;&lt;/li&gt;&lt;li data-end=&quot;719&quot; data-start=&quot;703&quot;&gt;&lt;p data-end=&quot;719&quot; data-start=&quot;705&quot;&gt;&lt;font size=&quot;3&quot;&gt;Break the loop&lt;/font&gt;&lt;/p&gt;&lt;/li&gt;&lt;/ul&gt;&lt;/li&gt;&lt;/ul&gt;&lt;/li&gt;&lt;li data-end=&quot;773&quot; data-start=&quot;723&quot;&gt;&lt;p data-end=&quot;752&quot; data-start=&quot;726&quot;&gt;&lt;font size=&quot;3&quot;&gt;If &lt;code data-end=&quot;745&quot; data-start=&quot;729&quot;&gt;isPrime = true&lt;/code&gt;, then:&lt;/font&gt;&lt;/p&gt;&lt;ul data-end=&quot;773&quot; data-start=&quot;759&quot;&gt;&lt;li data-end=&quot;773&quot; data-start=&quot;759&quot;&gt;&lt;p data-end=&quot;773&quot; data-start=&quot;761&quot;&gt;&lt;font size=&quot;3&quot;&gt;Output &lt;code data-end=&quot;773&quot; data-start=&quot;768&quot;&gt;num&amp;nbsp;&lt;/code&gt;&lt;/font&gt;&lt;/p&gt;&lt;/li&gt;&lt;li data-end=&quot;773&quot; data-start=&quot;759&quot;&gt;&lt;p data-end=&quot;773&quot; data-start=&quot;761&quot;&gt;&lt;strong style=&quot;background-color: transparent; color: light-dark(rgb(0, 0, 0), rgb(255, 255, 255));&quot; data-end=&quot;784&quot; data-start=&quot;777&quot;&gt;&lt;font size=&quot;3&quot;&gt;End&lt;/font&gt;&lt;/strong&gt;&lt;/p&gt;&lt;/li&gt;&lt;/ul&gt;&lt;/li&gt;&lt;/ol&gt;&lt;/li&gt;" style="text;html=1;align=left;verticalAlign=middle;resizable=0;points=[];autosize=1;strokeColor=none;fillColor=none;" vertex="1" parent="1">
          <mxGeometry x="-390" y="130" width="470" height="520" as="geometry" />
        </mxCell>
      </root>
    </mxGraphModel>
  </diagram>
</mxfile>
